HIERARCHY
ROOT Hips
{
	OFFSET -0.001795 -0.223333 0.028219
	CHANNELS 6 Xposition Yposition Zposition Zrotation Yrotation Xrotation 
	JOINT LeftUpLeg
	{
		OFFSET 0.069520 -0.091406 -0.006815
		CHANNELS 3 Zrotation Yrotation Xrotation
		JOINT LeftLeg
		{
			OFFSET 0.034277 -0.375199 -0.004496
			CHANNELS 3 Zrotation Yrotation Xrotation
			JOINT LeftFoot
			{
				OFFSET -0.013596 -0.397961 -0.043693
				CHANNELS 3 Zrotation Yrotation Xrotation
				JOINT LeftToe
				{
					OFFSET 0.026358 -0.055791 0.119288
					CHANNELS 3 Zrotation Yrotation Xrotation
					End Site
					{
						OFFSET 0.000000 0.000000 0.000000
					}
				}
			}
		}
	}
	JOINT RightUpLeg
	{
		OFFSET -0.067670 -0.090522 -0.004320
		CHANNELS 3 Zrotation Yrotation Xrotation
		JOINT RightLeg
		{
			OFFSET -0.038290 -0.382569 -0.008850
			CHANNELS 3 Zrotation Yrotation Xrotation
			JOINT RightFoot
			{
				OFFSET 0.015774 -0.398415 -0.042312
				CHANNELS 3 Zrotation Yrotation Xrotation
				JOINT RightToe
				{
					OFFSET -0.025372 -0.048144 0.123348
					CHANNELS 3 Zrotation Yrotation Xrotation
					End Site
					{
						OFFSET 0.000000 0.000000 0.000000
					}
				}
			}
		}
	}
	JOINT Spine
	{
		OFFSET -0.002533 0.108963 -0.026696
		CHANNELS 3 Zrotation Yrotation Xrotation
		JOINT Spine1
		{
			OFFSET 0.005487 0.135180 0.001092
			CHANNELS 3 Zrotation Yrotation Xrotation
			JOINT Spine2
			{
				OFFSET 0.001457 0.052922 0.025425
				CHANNELS 3 Zrotation Yrotation Xrotation
				JOINT Neck
				{
					OFFSET -0.002778 0.213870 -0.042857
					CHANNELS 3 Zrotation Yrotation Xrotation
					JOINT Head
					{
						OFFSET 0.005152 0.064970 0.051349
						CHANNELS 3 Zrotation Yrotation Xrotation
						End Site
						{
							OFFSET 0.000000 0.000000 0.000000
						}
					}
				}
				JOINT LeftShoulder
				{
					OFFSET 0.078845 0.121749 -0.034090
					CHANNELS 3 Zrotation Yrotation Xrotation
					JOINT LeftArm
					{
						OFFSET 0.090977 0.030469 -0.008868
						CHANNELS 3 Zrotation Yrotation Xrotation
						JOINT LeftForeArm
						{
							OFFSET 0.259612 -0.012772 -0.027456
							CHANNELS 3 Zrotation Yrotation Xrotation
							JOINT LeftHand
							{
								OFFSET 0.249234 0.008986 -0.001171
								CHANNELS 3 Zrotation Yrotation Xrotation
								End Site
								{
									OFFSET 0.000000 0.000000 0.000000
								}
							}
						}
					}
				}
				JOINT RightShoulder
				{
					OFFSET -0.081759 0.118833 -0.038615
					CHANNELS 3 Zrotation Yrotation Xrotation
					JOINT RightArm
					{
						OFFSET -0.096012 0.032551 -0.009143
						CHANNELS 3 Zrotation Yrotation Xrotation
						JOINT RightForeArm
						{
							OFFSET -0.253742 -0.013329 -0.021401
							CHANNELS 3 Zrotation Yrotation Xrotation
							JOINT RightHand
							{
								OFFSET -0.255298 0.007772 -0.005559
								CHANNELS 3 Zrotation Yrotation Xrotation
								End Site
								{
									OFFSET 0.000000 0.000000 0.000000
								}
							}
						}
					}
				}
			}
		}
	}
}
MOTION
Frames: 15
Frame Time: 0.050000
0.000000 0.967751 0.000000 -1.409014 -0.800414 4.941553 1.054440 -0.137442 -1.399095 -2.765529 0.327767 -2.481860 3.903903 12.562080 22.813505 0.000000 0.000000 0.000000 -1.064330 0.402793 -4.027748 1.236836 -0.060864 2.263034 -3.888446 -13.264778 17.427517 0.000000 0.000000 0.000000 4.276933 -0.689396 7.513921 -6.250263 1.996205 -25.773104 -1.834735 3.755542 26.137778 9.128424 -3.922193 -22.156372 0.000000 0.000000 0.000000 -23.631104 -8.167995 2.492127 -46.103950 -4.504463 -5.729034 0.205104 -23.753037 0.976961 0.000000 0.000000 0.000000 32.586475 -3.551773 -3.433966 50.101642 3.508957 -6.111097 1.587975 26.407710 1.770919 0.000000 0.000000 0.000000 
0.002892 0.966837 0.003570 -1.301791 -0.730733 5.570554 0.858834 -0.171560 -1.812232 -3.429880 0.385379 -2.428633 4.772911 13.598195 22.036471 0.000000 0.000000 0.000000 -1.420244 0.422159 -4.232549 1.319824 -0.080174 1.945142 -3.895037 -13.215480 17.088344 0.000000 0.000000 0.000000 4.038770 -0.614594 6.717916 -6.312868 1.985570 -26.403684 -1.899859 4.194142 26.741357 8.577329 -3.432098 -22.612083 0.000000 0.000000 0.000000 -23.656285 -7.371037 1.899880 -46.586798 -3.771458 -6.089574 0.709290 -24.149529 0.891527 0.000000 0.000000 0.000000 33.209654 -4.460388 -3.940270 51.162641 2.008412 -6.933057 2.305703 28.563038 2.195485 0.000000 0.000000 0.000000 
0.006241 0.965353 0.007267 -1.041409 0.103866 5.635585 0.760471 -0.204679 -2.208547 -3.865347 0.416586 -1.439204 4.184061 12.823055 21.081672 0.000000 0.000000 0.000000 -1.740366 0.355142 -3.465011 1.326780 -0.106269 1.157364 -4.501072 -14.048159 16.790285 0.000000 0.000000 0.000000 4.329867 -0.617219 6.407742 -7.325230 2.229052 -26.031234 -1.621065 3.505998 27.026350 8.501559 -3.578096 -21.720460 0.000000 0.000000 0.000000 -23.408803 -7.959871 2.313407 -46.754018 -3.502169 -6.243484 -0.359125 -23.018358 1.053784 0.000000 0.000000 0.000000 33.632482 -3.636929 -3.417334 51.094708 1.716372 -7.073365 2.766185 27.658503 2.194012 0.000000 0.000000 0.000000 
0.010180 0.965737 0.011096 -1.005613 0.105477 6.016020 0.113726 -0.243371 -2.669198 -3.640520 0.393475 -0.727862 4.860983 13.642121 20.435221 0.000000 0.000000 0.000000 -2.262248 0.392774 -3.887021 1.821001 -0.144689 1.927437 -4.488746 -13.959069 16.244272 0.000000 0.000000 0.000000 4.357138 -0.586101 5.936468 -7.813420 2.302144 -26.644614 -1.104573 4.430288 27.931988 9.089699 -3.820821 -21.845834 0.000000 0.000000 0.000000 -23.575242 -7.891835 1.997464 -46.639043 -2.149251 -6.714222 -0.572483 -23.828878 1.110446 0.000000 0.000000 0.000000 35.081596 -4.324768 -3.619940 50.102126 1.629860 -7.229559 3.294469 27.493305 2.354293 0.000000 0.000000 0.000000 
0.014972 0.965692 0.014891 -1.171975 0.696529 6.121570 0.104738 -0.263457 -2.903440 -3.887847 0.413087 -0.104272 4.917089 13.737926 19.940427 0.000000 0.000000 0.000000 -2.433934 0.389306 -3.857657 1.661878 -0.122516 2.164008 -4.232328 -13.510347 16.798790 0.000000 0.000000 0.000000 4.033540 -0.568847 6.002308 -7.234697 2.192541 -26.522828 -0.859162 4.903089 27.896968 9.555670 -4.034698 -21.631848 0.000000 0.000000 0.000000 -24.212454 -7.703249 1.543859 -46.425703 -1.893428 -6.681366 -1.239338 -23.463166 1.195231 0.000000 0.000000 0.000000 35.691775 -4.216904 -3.168623 49.395338 1.294590 -7.412009 3.740407 26.713107 2.388876 0.000000 0.000000 0.000000 
0.020654 0.966142 0.018429 -1.354441 0.604806 5.904107 -0.121194 -0.262132 -2.889383 -3.447794 0.364757 0.691509 4.317000 12.933731 20.052469 0.000000 0.000000 0.000000 -2.642058 0.434177 -4.449211 2.254224 -0.159093 4.111448 -4.902808 -14.618318 16.575626 0.000000 0.000000 0.000000 4.116823 -0.603117 6.386641 -7.443510 2.233560 -26.579999 -0.399864 5.205631 27.992832 9.609354 -3.999374 -21.771647 0.000000 0.000000 0.000000 -24.192579 -7.698571 1.456021 -47.251730 -1.555433 -6.907186 -2.155045 -23.151288 1.359573 0.000000 0.000000 0.000000 36.130207 -3.749779 -2.719606 49.256614 1.364825 -7.416574 3.620607 25.752564 2.251973 0.000000 0.000000 0.000000 
0.026736 0.966004 0.021986 -1.518877 0.749667 5.901797 0.051931 -0.223917 -2.470870 -3.561931 0.376873 0.451874 3.147283 11.330716 19.855944 0.000000 0.000000 0.000000 -3.036554 0.586539 -6.568948 3.135851 -0.241960 8.359883 -5.756704 -16.007280 16.373136 0.000000 0.000000 0.000000 4.237784 -0.663012 7.002379 -7.088828 2.161352 -26.562608 -0.563929 5.208640 27.836998 9.839311 -4.074092 -22.078124 0.000000 0.000000 0.000000 -24.357979 -7.602437 1.344027 -47.913734 -0.782189 -7.264070 -3.040324 -23.068541 1.530871 0.000000 0.000000 0.000000 35.959846 -3.233636 -2.278853 48.968037 1.318788 -7.380881 4.369898 25.254471 2.328018 0.000000 0.000000 0.000000 
0.032740 0.965621 0.026028 -1.659670 1.220101 5.338085 -0.375813 -0.110171 -1.284000 -3.321209 0.347084 0.460784 3.068690 10.956238 17.995201 0.000000 0.000000 0.000000 -3.668741 0.744310 -9.287320 4.535504 -0.536155 14.562865 -6.704163 -17.512434 16.140366 0.000000 0.000000 0.000000 4.329062 -0.738787 7.902796 -6.809978 2.145486 -25.791282 -0.819272 4.704125 27.721899 9.683695 -3.933360 -22.433062 0.000000 0.000000 0.000000 -24.828021 -7.697558 1.417258 -47.543436 -0.818105 -7.179965 -3.568208 -21.730800 1.537081 0.000000 0.000000 0.000000 35.734346 -2.792282 -2.011063 49.130783 2.301108 -6.993293 3.337644 24.570610 2.033113 0.000000 0.000000 0.000000 
0.037649 0.964907 0.031512 -1.891760 2.003994 4.214346 -0.051002 0.041902 0.445006 -3.801158 0.393162 0.290220 2.667964 10.335774 17.199913 0.000000 0.000000 0.000000 -4.013062 0.867179 -11.858588 5.615210 -0.976226 21.668242 -7.081076 -18.047710 16.156929 0.000000 0.000000 0.000000 4.349627 -0.878629 9.680656 -6.248444 2.053767 -25.600636 -1.375664 4.190881 28.017093 10.378249 -4.339586 -22.762609 0.000000 0.000000 0.000000 -25.507860 -8.494834 1.856044 -46.349312 -0.655436 -7.049962 -4.133939 -21.023084 1.577882 0.000000 0.000000 0.000000 34.898105 -3.024097 -2.083214 49.385105 3.527574 -6.583600 4.115582 24.331802 2.172918 0.000000 0.000000 0.000000 
0.041245 0.965106 0.039414 -2.329184 2.485187 3.163431 0.208352 0.177585 2.103006 -3.661774 0.374017 0.622336 2.350121 9.696545 16.084568 0.000000 0.000000 0.000000 -3.983029 1.054032 -15.199176 6.359632 -1.449511 27.720331 -6.879857 -17.677796 16.775974 0.000000 0.000000 0.000000 4.603028 -0.996891 10.817012 -5.965096 2.017182 -25.343262 -1.757609 2.698747 28.782804 9.936084 -4.133143 -23.586214 0.000000 0.000000 0.000000 -26.602957 -8.629799 2.349091 -45.266691 -0.453806 -7.108429 -4.554367 -20.528849 1.644528 0.000000 0.000000 0.000000 34.120620 -2.392289 -2.020926 50.067006 3.932654 -6.423954 4.560320 24.625649 2.272074 0.000000 0.000000 0.000000 
0.043541 0.965217 0.049973 -2.892735 2.286436 2.826116 0.486021 0.285176 3.535010 -3.288545 0.337337 0.354198 2.251173 9.323767 15.222047 0.000000 0.000000 0.000000 -3.325733 1.400396 -19.343718 7.265028 -1.886417 30.590147 -7.139248 -18.074657 14.460040 0.000000 0.000000 0.000000 4.864611 -1.054132 11.152176 -5.051005 1.820400 -24.974573 -2.605466 2.092207 28.837673 9.469665 -3.966707 -23.463660 0.000000 0.000000 0.000000 -26.556051 -9.171189 2.966347 -45.396139 -0.022274 -7.336684 -4.827569 -19.497843 1.615062 0.000000 0.000000 0.000000 33.377916 -2.025088 -2.019371 50.454934 3.591744 -6.475710 5.586333 24.746068 2.464811 0.000000 0.000000 0.000000 
0.045128 0.964760 0.063166 -3.190913 2.256167 3.031548 0.607193 0.386454 4.863556 -3.316912 0.341275 0.206771 2.378046 8.928731 12.813697 0.000000 0.000000 0.000000 -2.512792 1.766741 -22.780551 7.249158 -1.812120 29.253219 -6.341236 -16.602286 12.612109 0.000000 0.000000 0.000000 5.284867 -1.156568 11.666112 -5.373270 1.869296 -25.641176 -2.654624 0.766979 29.270147 9.147719 -3.922253 -24.050804 0.000000 0.000000 0.000000 -27.063428 -8.960433 3.391534 -44.608908 -0.631197 -7.201249 -4.859645 -18.623498 1.567623 0.000000 0.000000 0.000000 32.667259 -2.112298 -2.638531 50.648020 3.245626 -6.493991 6.560071 24.358789 2.562650 0.000000 0.000000 0.000000 
0.046388 0.962064 0.079058 -3.450243 2.188957 3.149969 0.303106 0.538419 6.445477 -2.920586 0.301948 0.032134 3.080430 9.405810 10.221211 0.000000 0.000000 0.000000 -1.786004 2.139432 -25.892518 7.647131 -1.758241 24.983257 -6.879156 -17.619624 14.386476 0.000000 0.000000 0.000000 5.500100 -1.221273 12.031562 -4.686878 1.706883 -25.947535 -3.472144 0.685609 29.595070 10.035234 -4.375907 -24.816145 0.000000 0.000000 0.000000 -26.651381 -9.121178 3.564754 -44.034337 -0.865858 -7.076800 -5.574871 -18.478813 1.662897 0.000000 0.000000 0.000000 32.642583 -2.855185 -3.256838 50.742483 3.136274 -6.531254 6.542070 24.624345 2.594700 0.000000 0.000000 0.000000 
0.047664 0.958101 0.098402 -3.755776 2.568979 3.028932 0.714718 0.642602 8.257912 -3.020159 0.308065 0.233551 2.934806 8.524780 7.675578 0.000000 0.000000 0.000000 -1.268476 2.399405 -28.128759 7.576948 -1.483188 18.356348 -6.550334 -17.147258 18.537737 0.000000 0.000000 0.000000 6.051283 -1.363106 12.674543 -4.692882 1.713247 -25.860794 -3.883898 0.114311 29.112045 10.781914 -4.855819 -24.939521 0.000000 0.000000 0.000000 -27.003335 -9.306378 3.763777 -42.895550 -1.504337 -6.668564 -6.392373 -18.734091 1.810170 0.000000 0.000000 0.000000 32.586873 -3.497852 -3.909622 50.675797 2.314342 -6.734683 7.139166 25.268628 2.778056 0.000000 0.000000 0.000000 
0.049112 0.951873 0.122012 -3.829772 2.855801 2.636950 0.706867 0.830376 10.770608 -2.882161 0.291419 0.323761 3.013584 7.892026 4.955085 0.000000 0.000000 0.000000 -0.947941 2.547312 -29.339202 7.326370 -1.183803 11.705524 -6.339330 -16.903749 22.321040 0.000000 0.000000 0.000000 6.441681 -1.452305 13.050681 -5.035166 1.791327 -26.105853 -3.899578 0.251835 29.793845 10.767909 -4.494998 -26.787683 0.000000 0.000000 0.000000 -27.065413 -10.349469 4.331183 -42.618955 -2.764119 -6.248137 -6.204396 -19.717155 1.872706 0.000000 0.000000 0.000000 33.063391 -4.175545 -4.309359 50.669137 1.504936 -7.147510 6.459339 25.993918 2.757341 0.000000 0.000000 0.000000 
